<svg xmlns="http://www.w3.org/2000/svg" width="101" height="101" viewBox="0 0 101 101">
  <g id="play" transform="translate(-3.5 -3.5)">
    <g id="Group_102" data-name="Group 102" transform="translate(4 4)">
      <g id="Group_99" data-name="Group 99" transform="translate(17.46 15.558)">
        <path id="Path_15" data-name="Path 15" d="M113.18,77.872c0,19.011-14.58,34.446-32.54,34.446S48.1,96.883,48.1,77.872,62.68,43.43,80.64,43.43,113.18,58.861,113.18,77.872Z" transform="translate(-48.1 -43.43)" fill="#343434"/>
      </g>
      <g id="Group_101" data-name="Group 101" transform="translate(0 0)">
        <path id="Path_16" data-name="Path 16" d="M58.1,4.165l2.012.206,1.992.286,1.964.359L66,5.456l1.911.512,1.875.585,1.847.657,1.81.726,1.778.794,1.738.859,1.7.923,1.661.988,1.617,1.052,1.577,1.109,1.528,1.165,1.48,1.226,1.435,1.278,1.383,1.331,1.331,1.383,1.282,1.435,1.222,1.48,1.165,1.532,1.109,1.573L96.5,27.681l.988,1.661.923,1.7.859,1.742.794,1.774.726,1.81.657,1.847.585,1.879L102.544,42l.44,1.935.359,1.964.286,1.992.206,2.016.125,2.036L104,54l-.04,2.056-.125,2.036-.206,2.016-.286,1.992-.359,1.964L102.544,66l-.512,1.907-.585,1.879-.657,1.847-.726,1.81-.794,1.774-.859,1.742-.923,1.7L96.5,80.319l-1.052,1.617-1.109,1.573L93.173,85.04l-1.222,1.48-1.282,1.435-1.331,1.383-1.383,1.331L86.52,91.948l-1.48,1.226-1.528,1.165-1.577,1.109L80.319,96.5l-1.661.988-1.7.923-1.738.859-1.778.794-1.81.726-1.847.657-1.875.585L66,102.544l-1.935.44-1.964.359-1.992.286-2.012.206-2.04.125L54,104l-2.056-.04-2.04-.125-2.012-.206-1.992-.286-1.964-.359L42,102.544l-1.911-.512-1.875-.585-1.847-.657-1.81-.726-1.778-.794-1.738-.859-1.7-.923L27.681,96.5l-1.617-1.052-1.577-1.109L22.96,93.173l-1.48-1.226-1.435-1.278-1.383-1.331-1.331-1.383L16.048,86.52l-1.222-1.48-1.165-1.532-1.109-1.573L11.5,80.319l-.988-1.661-.923-1.7L8.73,75.218l-.794-1.774-.726-1.81-.657-1.847-.585-1.879L5.456,66l-.44-1.935L4.657,62.1l-.286-1.992-.206-2.016L4.04,56.056,4,54l.04-2.056.125-2.036.206-2.016L4.657,45.9l.359-1.964L5.456,42l.512-1.907.585-1.879.657-1.847.726-1.81.794-1.774.859-1.742.923-1.7.988-1.661,1.052-1.617,1.109-1.573,1.165-1.532,1.222-1.48,1.282-1.435,1.331-1.383,1.383-1.331,1.435-1.278,1.48-1.226,1.528-1.165,1.577-1.109L27.681,11.5l1.661-.988,1.7-.923,1.738-.859,1.778-.794,1.81-.726,1.847-.657,1.875-.585L42,5.456l1.935-.44L45.9,4.657l1.992-.286L49.9,4.165l2.04-.125L54,4l2.056.04ZM41.028,29.81h-.044l-.044,0-.044,0-.04.008-.044,0-.044.012-.04.008-.044.012-.04.008-.044.016-.04.012-.04.016-.044.016-.04.02-.04.016-.04.02-.04.02-.036.024-.04.024-.036.024-.036.024-.036.028-.036.024-.032.028-.032.028-.032.032-.032.028-.032.032-.028.032-.028.032-.028.032-.028.036-.024.032-.024.036-.024.036-.024.036-.024.04-.02.036-.02.04-.016.036-.02.04-.016.04-.016.04-.016.044-.012.04-.012.04-.012.044-.008.04-.012.044-.008.044,0,.044-.008.044,0,.044v.044l0,.044v45.25l0,.044v.044l0,.044.008.044,0,.044.008.044.012.044.008.04.012.044.012.04.012.04.016.044.016.04.016.04.02.04.016.036.02.04.02.036.024.04.024.036.024.036.024.036.024.032.028.036.028.032.028.032.028.032.032.032.032.028.032.032.032.028.032.028.036.024.036.028.036.024.036.024.04.024.036.024.04.02.02.008.016.008.016.008.02.008.016.008.02.008.016.008.02.008.016.008.02.008.016,0,.02.008.016,0,.02.008.02,0,.016.008.02,0,.02,0,.016,0,.02.008.016,0,.02,0,.02,0,.016,0,.02,0h.02l.02,0,.016,0,.02,0h.02l.016,0h.02l.02,0H41l.02,0h.149l.024,0h.024l.024,0h.024l.024,0,.024,0,.024,0,.024,0,.024,0,.024,0,.024,0,.024,0,.024-.008.024,0,.02-.008.024,0,.024-.008.024-.008.024-.008.02-.008.024-.008.024-.008.02-.012.024-.008.024-.012.02-.008.024-.012.02-.012.024-.008.02-.012.024-.012.02-.016.02-.012.024-.012.02-.012.02-.016.02-.012L74.278,55.323l.032-.024.032-.024.032-.024.028-.024.028-.028.028-.024.028-.028.028-.028.028-.028.024-.028.024-.028L74.617,55l.024-.028.024-.032.02-.032.024-.028.02-.036.02-.032.016-.032.02-.032.016-.036.016-.032.016-.036.016-.036.012-.036.012-.036.016-.036.008-.036.012-.036.008-.036.012-.04.008-.036,0-.036.008-.04,0-.04,0-.036,0-.04,0-.04v-.153l0-.04,0-.04,0-.036,0-.04-.008-.04,0-.036-.008-.036-.012-.04-.008-.036L74.9,53.54l-.008-.036-.016-.036-.012-.036-.012-.036-.016-.036-.016-.036L74.8,53.29l-.016-.036-.02-.032-.016-.032-.02-.032-.02-.036-.024-.028-.02-.032-.024-.032L74.617,53l-.024-.032-.024-.028-.024-.028-.028-.028-.028-.028-.028-.028-.028-.024-.028-.028-.028-.024-.032-.024L74.31,52.7l-.032-.024L42.02,30.1l-.036-.024-.036-.024-.04-.024-.04-.02-.036-.02-.04-.02-.04-.02-.04-.016-.04-.016-.044-.016-.04-.012-.04-.012-.044-.012-.04-.012-.044-.008-.04-.008-.044-.008-.044,0-.04,0-.044,0-.044,0h-.089Z" transform="translate(-4 -4)" fill="#f2f2f2"/>
        <g id="Group_100" data-name="Group 100">
          <path id="Path_17" data-name="Path 17" d="M58.1,4.165l2.012.206,1.992.286,1.964.359L66,5.456l1.911.512,1.875.585,1.847.657,1.81.726,1.778.794,1.738.859,1.7.923,1.661.988,1.617,1.052,1.577,1.109,1.528,1.165,1.48,1.226,1.435,1.278,1.383,1.331,1.331,1.383,1.282,1.435,1.222,1.48,1.165,1.532,1.109,1.573L96.5,27.681l.988,1.661.923,1.7.859,1.742.794,1.774.726,1.81.657,1.847.585,1.879L102.544,42l.44,1.935.359,1.964.286,1.992.206,2.016.125,2.036L104,54l-.04,2.056-.125,2.036-.206,2.016-.286,1.992-.359,1.964L102.544,66l-.512,1.907-.585,1.879-.657,1.847-.726,1.81-.794,1.774-.859,1.742-.923,1.7L96.5,80.319l-1.052,1.617-1.109,1.573L93.173,85.04l-1.222,1.48-1.282,1.435-1.331,1.383-1.383,1.331L86.52,91.948l-1.48,1.226-1.528,1.165-1.577,1.109L80.319,96.5l-1.661.988-1.7.923-1.738.859-1.778.794-1.81.726-1.847.657-1.875.585L66,102.544l-1.935.44-1.964.359-1.992.286-2.012.206-2.04.125L54,104l-2.056-.04-2.04-.125-2.012-.206-1.992-.286-1.964-.359L42,102.544l-1.911-.512-1.875-.585-1.847-.657-1.81-.726-1.778-.794-1.738-.859-1.7-.923L27.681,96.5l-1.617-1.052-1.577-1.109L22.96,93.173l-1.48-1.226-1.435-1.278-1.383-1.331-1.331-1.383L16.048,86.52l-1.222-1.48-1.165-1.532-1.109-1.573L11.5,80.319l-.988-1.661-.923-1.7L8.73,75.218l-.794-1.774-.726-1.81-.657-1.847-.585-1.879L5.456,66l-.44-1.935L4.657,62.1l-.286-1.992-.206-2.016L4.04,56.056,4,54l.04-2.056.125-2.036.206-2.016L4.657,45.9l.359-1.964L5.456,42l.512-1.907.585-1.879.657-1.847.726-1.81.794-1.774.859-1.742.923-1.7.988-1.661,1.052-1.617,1.109-1.573,1.165-1.532,1.222-1.48,1.282-1.435,1.331-1.383,1.383-1.331,1.435-1.278,1.48-1.226,1.528-1.165,1.577-1.109L27.681,11.5l1.661-.988,1.7-.923,1.738-.859,1.778-.794,1.81-.726,1.847-.657,1.875-.585L42,5.456l1.935-.44L45.9,4.657l1.992-.286L49.9,4.165l2.04-.125L54,4l2.056.04ZM41.028,29.81h-.044l-.044,0-.044,0-.04.008-.044,0-.044.012-.04.008-.044.012-.04.008-.044.016-.04.012-.04.016-.044.016-.04.02-.04.016-.04.02-.04.02-.036.024-.04.024-.036.024-.036.024-.036.028-.036.024-.032.028-.032.028-.032.032-.032.028-.032.032-.028.032-.028.032-.028.032-.028.036-.024.032-.024.036-.024.036-.024.036-.024.04-.02.036-.02.04-.016.036-.02.04-.016.04-.016.04-.016.044-.012.04-.012.04-.012.044-.008.04-.012.044-.008.044,0,.044-.008.044,0,.044v.044l0,.044v45.25l0,.044v.044l0,.044.008.044,0,.044.008.044.012.044.008.04.012.044.012.04.012.04.016.044.016.04.016.04.02.04.016.036.02.04.02.036.024.04.024.036.024.036.024.036.024.032.028.036.028.032.028.032.028.032.032.032.032.028.032.032.032.028.032.028.036.024.036.028.036.024.036.024.04.024.036.024.04.02.02.008.016.008.016.008.02.008.016.008.02.008.016.008.02.008.016.008.02.008.016,0,.02.008.016,0,.02.008.02,0,.016.008.02,0,.02,0,.016,0,.02.008.016,0,.02,0,.02,0,.016,0,.02,0h.02l.02,0,.016,0,.02,0h.02l.016,0h.02l.02,0H41l.02,0h.149l.024,0h.024l.024,0h.024l.024,0,.024,0,.024,0,.024,0,.024,0,.024,0,.024,0,.024,0,.024-.008.024,0,.02-.008.024,0,.024-.008.024-.008.024-.008.02-.008.024-.008.024-.008.02-.012.024-.008.024-.012.02-.008.024-.012.02-.012.024-.008.02-.012.024-.012.02-.016.02-.012.024-.012.02-.012.02-.016.02-.012L74.278,55.323l.032-.024.032-.024.032-.024.028-.024.028-.028.028-.024.028-.028.028-.028.028-.028.024-.028.024-.028L74.617,55l.024-.028.024-.032.02-.032.024-.028.02-.036.02-.032.016-.032.02-.032.016-.036.016-.032.016-.036.016-.036.012-.036.012-.036.016-.036.008-.036.012-.036.008-.036.012-.04.008-.036,0-.036.008-.04,0-.04,0-.036,0-.04,0-.04v-.153l0-.04,0-.04,0-.036,0-.04-.008-.04,0-.036-.008-.036-.012-.04-.008-.036L74.9,53.54l-.008-.036-.016-.036-.012-.036-.012-.036-.016-.036-.016-.036L74.8,53.29l-.016-.036-.02-.032-.016-.032-.02-.032-.02-.036-.024-.028-.02-.032-.024-.032L74.617,53l-.024-.032-.024-.028-.024-.028-.028-.028-.028-.028-.028-.028-.028-.024-.028-.028-.028-.024-.032-.024L74.31,52.7l-.032-.024L42.02,30.1l-.036-.024-.036-.024-.04-.024-.04-.02-.036-.02-.04-.02-.04-.02-.04-.016-.04-.016-.044-.016-.04-.012-.04-.012-.044-.012-.04-.012-.044-.008-.04-.008-.044-.008-.044,0-.04,0-.044,0-.044,0h-.089Z" transform="translate(-4 -4)" fill="rgba(0,0,0,0)" stroke="rgba(0,0,0,0)" stroke-width="1"/>
        </g>
      </g>
    </g>
  </g>
</svg>
