<svg xmlns="http://www.w3.org/2000/svg" viewBox="0 0 573.33 385.39"><defs><style>.cls-1{fill:#f06e00;}.cls-2{fill:#fff;}</style></defs><title>Asset 5</title><g id="Layer_2" data-name="Layer 2"><g id="Layer_1-2" data-name="Layer 1"><rect class="cls-1" width="573.33" height="385.39"/><polygon class="cls-2" points="443.71 260.68 443.71 144.81 473.59 144.81 473.59 108.2 369.9 108.2 369.9 144.81 400.96 144.81 400.96 260.68 400.97 260.68 443.71 260.68"/><polygon class="cls-2" points="285.1 144.81 285.11 260.68 327.85 260.68 327.85 144.81 358.03 144.81 358.03 108.2 255.81 108.2 243.65 144.81 285.1 144.81"/><path class="cls-2" d="M192.73,260.68l50-152.36H199.31L173.86,187l-3.27,11v0a.12.12,0,0,1-.13.08c-.06,0-.1,0-.12-.05l0,0-3.24-11-17.22-50.69H107.23l41.64,124.41Z"/></g></g></svg>